{
	"asset": {
		"generator": "Unity 5.6.0f3",
		"extras": {
			"exporterVersion" : "2.1.1"
		},
		"version": "2.0"
	},
	"accessors": [
		{
			"bufferView": 2,
			"byteOffset": 0,
			"componentType": 5126,
			"count": 794,
			"max": [ 1.05975, 0.861501, 0.425 ],
			"min": [ -1.05975, 0.000401, -0.446331 ],
			"type": "VEC3"
		},
		{
			"bufferView": 2,
			"byteOffset": 9528,
			"componentType": 5126,
			"count": 794,
			"max": [ 1, 0.9926198, 1 ],
			"min": [ -1, -1, -1 ],
			"type": "VEC3"
		},
		{
			"bufferView": 1,
			"byteOffset": 0,
			"componentType": 5126,
			"count": 794,
			"max": [ 0.9942, 0.9934 ],
			"min": [ 0.0058, 0.0058 ],
			"type": "VEC2"
		},
		{
			"bufferView": 3,
			"byteOffset": 0,
			"componentType": 5126,
			"count": 794,
			"max": [ 0.9999994, 1, 1, 1 ],
			"min": [ -1, -1, -0.9957282, 1 ],
			"type": "VEC4"
		},
		{
			"bufferView": 0,
			"byteOffset": 0,
			"componentType": 5123,
			"count": 2568,
			"max": [ 793 ],
			"min": [ 0 ],
			"type": "SCALAR"
		}
	],
	"buffers": [
		{
			"byteLength": 43248,
			"uri": "Unity2Skfb.bin"
		}
	],
	"bufferViews": [
		{
			"buffer": 0,
			"byteLength": 5136,
			"byteOffset": 38112,
			"target": 34963
		},
		{
			"buffer": 0,
			"byteLength": 6352,
			"byteOffset": 0,
			"byteStride": 8,
			"target": 34962
		},
		{
			"buffer": 0,
			"byteLength": 19056,
			"byteOffset": 6352,
			"byteStride": 12,
			"target": 34962
		},
		{
			"buffer": 0,
			"byteLength": 12704,
			"byteOffset": 25408,
			"byteStride": 16,
			"target": 34962
		}
	],
	"images": [
		{
			"uri": "Assets/Apartment 01/Living Room/Assets/Textures/Couch/Variation_01/couch_Couch_AlbedoTransparency.jpg"
		},
		{
			"uri": "Assets/Apartment 01/Living Room/Assets/Textures/Couch/Variation_01/couch_Couch_MetallicSmoothness_converted_metalRoughness.jpg"
		},
		{
			"uri": "Assets/Apartment 01/Living Room/Assets/Textures/Couch/Variation_01/couch_Couch_Normal.jpg"
		},
		{
			"uri": "Assets/Apartment 01/Living Room/Assets/Textures/Couch/Variation_01/couch_Couch_AmbientOcclusion.jpg"
		}
	],
	"materials": [
		{
			"pbrMetallicRoughness": {
				"baseColorTexture" : {
					"index" : 0,
					"texCoord" : 0
				},
				"baseColorFactor": [1, 1, 1, 1],
				"metallicRoughnessTexture" : {
					"index" : 1,
					"texCoord" : 0
				},
				"metallicFactor": 1,
				"roughnessFactor": 1
			},
			"normalTexture" : {
				"index" : 2,
				"texCoord" : 0,
				"scale" : 1
			},
			"emissiveFactor": [0, 0, 0],
			"occlusionTexture" : {
				"index" : 3,
				"texCoord" : 0,
				"strength" : 1
			},
			"doubleSided": false,
			"name": "Couch_01"
		}
	],
	"meshes": [
		{
			"name": "mesh_default_9470Couch",
			"primitives": [
				{
					"attributes": {
						"POSITION": 0,
						"NORMAL": 1,
						"TEXCOORD_0": 2,
						"TANGENT": 3
					},
					"indices": 4,
					"material": 0,
					"mode": 4
				}
			]
		}
	],
	"nodes": [
		{
			"name": "UnityGlTF_correctionMatrix",
			"children": [
				1
			],
			"matrix": [-1, 0, -8.742278E-08, 0, 0, 1, 0, 0, 8.742278E-08, 0, -1, 0, 0, 0, 0, 1]
		},
		{
			"name": "node_Couch_9592",
			"mesh": 0,
			"matrix": [1, 0, 0, 0, 0, 1, 0, 0, 0, 0, 1, 0, 0, 0, 0, 1]
		}
	],
	"samplers": [
		{
			"magFilter": 9729,
			"minFilter": 9985,
			"wrapS": 10497,
			"wrapT": 10497
		}
	],
	"scenes": [
		{
			"name":"defaultScene",
			"nodes": [
				0
			]
		}
	],
	"scene": 0,
	"textures": [
		{
			"sampler": 0,
			"source": 0
		},
		{
			"sampler": 0,
			"source": 1
		},
		{
			"sampler": 0,
			"source": 2
		},
		{
			"sampler": 0,
			"source": 3
		}
	]
}