{
  "accessors": [
    {
      "bufferView": 2,
      "componentType": 5126,
      "count": 65532,
      "max": [
        1.0,
        0.6112710237503052,
        0.738411009311676
      ],
      "min": [
        -1.0,
        -0.6089239716529846,
        -0.738411009311676
      ],
      "type": "VEC3"
    },
    {
      "bufferView": 2,
      "byteOffset": 786384,
      "componentType": 5126,
      "count": 65532,
      "max": [
        0.999984860420227,
        0.9999866485595703,
        0.9999922513961792
      ],
      "min": [
        -1.0,
        -1.0,
        -0.9999921321868896
      ],
      "type": "VEC3"
    },
    {
      "bufferView": 3,
      "componentType": 5126,
      "count": 65532,
      "max": [
        1.0,
        0.9999977946281433,
        0.9999956488609314,
        1.0
      ],
      "min": [
        -0.9999997615814209,
        -0.9999997019767761,
        -0.9997736811637878,
        -1.0
      ],
      "type": "VEC4"
    },
    {
      "bufferView": 1,
      "componentType": 5126,
      "count": 65532,
      "max": [
        0.998507022857666,
        0.9985700249671936
      ],
      "min": [
        0.000944000028539449,
        0.0009440180147066712
      ],
      "type": "VEC2"
    },
    {
      "bufferView": 0,
      "componentType": 5125,
      "count": 324390,
      "type": "SCALAR"
    },
    {
      "bufferView": 2,
      "byteOffset": 1572768,
      "componentType": 5126,
      "count": 65532,
      "max": [
        0.9215620160102844,
        0.5556409955024719,
        0.6048550009727478
      ],
      "min": [
        -0.8957250118255615,
        -0.6076610088348389,
        -0.6270279884338379
      ],
      "type": "VEC3"
    },
    {
      "bufferView": 2,
      "byteOffset": 2359152,
      "componentType": 5126,
      "count": 65532,
      "max": [
        0.9999858736991882,
        0.9999710917472839,
        0.9999819993972778
      ],
      "min": [
        -0.9999861121177673,
        -0.9999716281890869,
        -0.9999902248382568
      ],
      "type": "VEC3"
    },
    {
      "bufferView": 3,
      "byteOffset": 1048512,
      "componentType": 5126,
      "count": 65532,
      "max": [
        0.9999611377716064,
        0.9999996423721313,
        0.9999964833259583,
        1.0
      ],
      "min": [
        -0.9999972581863403,
        -0.9999909400939941,
        -0.9999976754188538,
        -1.0
      ],
      "type": "VEC4"
    },
    {
      "bufferView": 1,
      "byteOffset": 524256,
      "componentType": 5126,
      "count": 65532,
      "max": [
        0.9985470175743103,
        0.9984999895095825
      ],
      "min": [
        0.000944000028539449,
        0.0009440180147066712
      ],
      "type": "VEC2"
    },
    {
      "bufferView": 0,
      "byteOffset": 1297560,
      "componentType": 5125,
      "count": 364668,
      "type": "SCALAR"
    },
    {
      "bufferView": 2,
      "byteOffset": 3145536,
      "componentType": 5126,
      "count": 65532,
      "max": [
        0.9170669913291931,
        0.5555019974708557,
        0.6086919903755188
      ],
      "min": [
        -0.8921229839324951,
        -0.6112710237503052,
        -0.6270279884338379
      ],
      "type": "VEC3"
    },
    {
      "bufferView": 2,
      "byteOffset": 3931920,
      "componentType": 5126,
      "count": 65532,
      "max": [
        0.999999463558197,
        0.9999645352363586,
        0.9999988675117493
      ],
      "min": [
        -0.9999963641166687,
        -0.9999679923057556,
        -0.9999972581863403
      ],
      "type": "VEC3"
    },
    {
      "bufferView": 3,
      "byteOffset": 2097024,
      "componentType": 5126,
      "count": 65532,
      "max": [
        0.9999986886978149,
        0.9999992847442627,
        0.999999463558197,
        1.0
      ],
      "min": [
        -0.9999942779541016,
        -0.9999864101409912,
        -0.9999986886978149,
        -1.0
      ],
      "type": "VEC4"
    },
    {
      "bufferView": 1,
      "byteOffset": 1048512,
      "componentType": 5126,
      "count": 65532,
      "max": [
        6.556389808654785,
        0.9984999895095825
      ],
      "min": [
        0.000944000028539449,
        -0.016371000558137894
      ],
      "type": "VEC2"
    },
    {
      "bufferView": 0,
      "byteOffset": 2756232,
      "componentType": 5125,
      "count": 354201,
      "type": "SCALAR"
    },
    {
      "bufferView": 2,
      "byteOffset": 4718304,
      "componentType": 5126,
      "count": 19308,
      "max": [
        -0.8511800169944763,
        0.14034199714660645,
        0.20340099930763245
      ],
      "min": [
        -0.9009699821472168,
        -0.6101400256156921,
        -0.5857899785041809
      ],
      "type": "VEC3"
    },
    {
      "bufferView": 2,
      "byteOffset": 4950000,
      "componentType": 5126,
      "count": 19308,
      "max": [
        0.9999967813491821,
        0.9999996423721313,
        0.9996497631072998
      ],
      "min": [
        -0.9999964833259583,
        -0.9999996423721313,
        -0.9996804594993591
      ],
      "type": "VEC3"
    },
    {
      "bufferView": 3,
      "byteOffset": 3145536,
      "componentType": 5126,
      "count": 19308,
      "max": [
        0.9994227886199951,
        0.9999907612800598,
        0.9999920129776001,
        1.0
      ],
      "min": [
        -0.9999645352363586,
        -0.9999513626098633,
        -0.9999889135360718,
        -1.0
      ],
      "type": "VEC4"
    },
    {
      "bufferView": 1,
      "byteOffset": 1572768,
      "componentType": 5126,
      "count": 19308,
      "max": [
        0.9910470247268677,
        0.9971820116043091
      ],
      "min": [
        0.11000999808311462,
        0.24315400421619415
      ],
      "type": "VEC2"
    },
    {
      "bufferView": 0,
      "byteOffset": 4173036,
      "componentType": 5125,
      "count": 106338,
      "type": "SCALAR"
    }
  ],
  "asset": {
    "extras": {
      "author": "AK STUDIO (https://sketchfab.com/inven2000)",
      "license": "CC-BY-4.0 (http://creativecommons.org/licenses/by/4.0/)",
      "source": "https://sketchfab.com/3d-models/ottoman-0828502a70984c09b8da933e9fd64417",
      "title": "Ottoman"
    },
    "generator": "Sketchfab-12.66.0",
    "version": "2.0"
  },
  "bufferViews": [
    {
      "buffer": 0,
      "byteLength": 4598388,
      "name": "floatBufferViews",
      "target": 34963
    },
    {
      "buffer": 0,
      "byteLength": 1727232,
      "byteOffset": 4598388,
      "byteStride": 8,
      "name": "floatBufferViews",
      "target": 34962
    },
    {
      "buffer": 0,
      "byteLength": 5181696,
      "byteOffset": 6325620,
      "byteStride": 12,
      "name": "floatBufferViews",
      "target": 34962
    },
    {
      "buffer": 0,
      "byteLength": 3454464,
      "byteOffset": 11507316,
      "byteStride": 16,
      "name": "floatBufferViews",
      "target": 34962
    }
  ],
  "buffers": [
    {
      "byteLength": 14961780,
      "uri": "scene.bin"
    }
  ],
  "images": [
    {
      "uri": "textures/Ottoman_baseColor.jpeg"
    },
    {
      "uri": "textures/Ottoman_metallicRoughness.png"
    },
    {
      "uri": "textures/Ottoman_normal.png"
    }
  ],
  "materials": [
    {
      "doubleSided": true,
      "name": "Ottoman",
      "normalTexture": {
        "index": 2
      },
      "occlusionTexture": {
        "index": 1
      },
      "pbrMetallicRoughness": {
        "baseColorTexture": {
          "index": 0
        },
        "metallicRoughnessTexture": {
          "index": 1
        }
      }
    }
  ],
  "meshes": [
    {
      "name": "defaultMaterial",
      "primitives": [
        {
          "attributes": {
            "NORMAL": 1,
            "POSITION": 0,
            "TANGENT": 2,
            "TEXCOORD_0": 3
          },
          "indices": 4,
          "material": 0,
          "mode": 4
        }
      ]
    },
    {
      "name": "defaultMaterial",
      "primitives": [
        {
          "attributes": {
            "NORMAL": 6,
            "POSITION": 5,
            "TANGENT": 7,
            "TEXCOORD_0": 8
          },
          "indices": 9,
          "material": 0,
          "mode": 4
        }
      ]
    },
    {
      "name": "defaultMaterial",
      "primitives": [
        {
          "attributes": {
            "NORMAL": 11,
            "POSITION": 10,
            "TANGENT": 12,
            "TEXCOORD_0": 13
          },
          "indices": 14,
          "material": 0,
          "mode": 4
        }
      ]
    },
    {
      "name": "defaultMaterial",
      "primitives": [
        {
          "attributes": {
            "NORMAL": 16,
            "POSITION": 15,
            "TANGENT": 17,
            "TEXCOORD_0": 18
          },
          "indices": 19,
          "material": 0,
          "mode": 4
        }
      ]
    }
  ],
  "nodes": [
    {
      "children": [
        1
      ],
      "matrix": [
        0.614720344543457,
        0.0,
        0.0,
        0.0,
        0.0,
        1.3649533604353104e-16,
        -0.614720344543457,
        0.0,
        0.0,
        0.614720344543457,
        1.3649533604353104e-16,
        0.0,
        0.0,
        0.0,
        0.0,
        1.0
      ],
      "name": "Sketchfab_model"
    },
    {
      "children": [
        2
      ],
      "matrix": [
        1.0,
        0.0,
        0.0,
        0.0,
        0.0,
        -4.371139006309477e-08,
        0.999999999999999,
        0.0,
        0.0,
        -0.999999999999999,
        -4.371139006309477e-08,
        0.0,
        0.0,
        0.0,
        0.0,
        1.0
      ],
      "name": "Collada visual scene group"
    },
    {
      "children": [
        3,
        4,
        5,
        6
      ],
      "name": "Ottoman"
    },
    {
      "mesh": 0,
      "name": "defaultMaterial"
    },
    {
      "mesh": 1,
      "name": "defaultMaterial"
    },
    {
      "mesh": 2,
      "name": "defaultMaterial"
    },
    {
      "mesh": 3,
      "name": "defaultMaterial"
    }
  ],
  "samplers": [
    {
      "magFilter": 9729,
      "minFilter": 9987,
      "wrapS": 10497,
      "wrapT": 10497
    }
  ],
  "scene": 0,
  "scenes": [
    {
      "name": "Sketchfab_Scene",
      "nodes": [
        0
      ]
    }
  ],
  "textures": [
    {
      "sampler": 0,
      "source": 0
    },
    {
      "sampler": 0,
      "source": 1
    },
    {
      "sampler": 0,
      "source": 2
    }
  ]
}
